<svg width="35" height="35" viewBox="0 0 35 35" fill="none" xmlns="http://www.w3.org/2000/svg">
<path d="M15.768 3C16.5378 1.66666 18.4622 1.66667 19.232 3L30.9234 23.25C31.6932 24.5833 30.7309 26.25 29.1913 26.25H5.80866C4.26905 26.25 3.30681 24.5833 4.07661 23.25L15.768 3Z" fill="#EE4B4B"/>
<path d="M16.92 18.58L16.56 9H18.82L18.44 18.58H16.92ZM17.7 23.12C17.3267 23.12 17.0133 22.9933 16.76 22.74C16.5067 22.4867 16.38 22.1867 16.38 21.84C16.38 21.4667 16.5067 21.16 16.76 20.92C17.0133 20.68 17.3267 20.56 17.7 20.56C18.0733 20.56 18.38 20.68 18.62 20.92C18.86 21.16 18.98 21.4667 18.98 21.84C18.98 22.1867 18.86 22.4867 18.62 22.74C18.38 22.9933 18.0733 23.12 17.7 23.12Z" fill="#FFFDED"/>
</svg>
