<svg width="27" height="27" viewBox="0 0 27 27" fill="none" xmlns="http://www.w3.org/2000/svg">
<circle cx="13.5" cy="13.5" r="12.5" fill="#FFFDED" stroke="#424242" stroke-width="2"/>
<path d="M12.152 19V10.392H14.648V19H12.152ZM13.4 9.192C12.9413 9.192 12.568 9.05867 12.28 8.792C11.992 8.52533 11.848 8.19467 11.848 7.8C11.848 7.40533 11.992 7.07467 12.28 6.808C12.568 6.54133 12.9413 6.408 13.4 6.408C13.8587 6.408 14.232 6.536 14.52 6.792C14.808 7.03733 14.952 7.35733 14.952 7.752C14.952 8.168 14.808 8.51467 14.52 8.792C14.2427 9.05867 13.8693 9.192 13.4 9.192Z" fill="#424242"/>
</svg>
